<svg width="31" height="62" viewBox="0 0 31 62" fill="none" xmlns="http://www.w3.org/2000/svg">
<path d="M15 0L27.9904 31.5H2.00962L15 0Z" fill="#C4C4C4"/>
<path d="M17.4242 14H14.3381C7.00241 14 1 20.0024 1 27.3381V48.4777C1 55.8134 7.00241 61.8158 14.3381 61.8158H17.4242C24.76 61.8158 30.7624 55.8134 30.7624 48.4777V27.3381C30.7624 20.0024 24.76 14 17.4242 14Z" fill="#D0CFCE"/>
<path d="M15.8811 20.6655C15.195 20.6675 14.5376 20.9409 14.0524 21.4261C13.5673 21.9112 13.2938 22.5687 13.2919 23.2548V30.538C13.2942 31.2239 13.5677 31.881 14.0529 32.3659C14.538 32.8508 15.1952 33.124 15.8811 33.126C16.567 33.124 17.2242 32.8508 17.7093 32.3659C18.1944 31.881 18.468 31.2239 18.4703 30.538V23.2548C18.4683 22.5687 18.1949 21.9112 17.7098 21.4261C17.2246 20.9409 16.5672 20.6675 15.8811 20.6655Z" fill="#3F3F3F"/>
<path d="M14.7263 15.7532C18.5053 17.3749 22.097 19.702 22.5152 25.5821C22.9996 32.3922 20.4803 45.1436 19.6688 51.6204C19.1032 56.1484 16.8636 58.2458 13.8886 60.6215C12.3905 61.8213 20.464 61.6752 23.7886 59.7314C26.6425 58.0635 29.4065 55.2009 29.4402 56.106L29.8434 23.8905C29.8434 23.8905 28.6736 15.2302 19.1494 15.2264C19.1494 15.2264 9.59652 14.7358 14.7263 15.7532Z" fill="#9B9B9A"/>
</svg>
