<svg width="36" height="30" viewBox="0 0 36 30" fill="none" xmlns="http://www.w3.org/2000/svg">
<path d="M5.08355 1.00444e-06C4.5034 -0.000347377 3.92885 0.0899321 3.39271 0.265683C2.85658 0.441433 2.36936 0.699211 1.9589 1.02429C1.54844 1.34937 1.22278 1.73539 1.00051 2.16028C0.778246 2.58518 0.663733 3.04063 0.663513 3.50063C0.663513 5.43658 2.64191 7.04103 5.07853 7.04103C7.5185 7.04103 9.49856 5.43658 9.49856 3.50328C9.499 3.04335 9.38513 2.58785 9.16345 2.16283C8.94177 1.73781 8.61663 1.35159 8.20662 1.02625C7.7966 0.700903 7.30975 0.442812 6.77387 0.266723C6.238 0.0906347 5.66362 8.72462e-07 5.08355 1.00444e-06ZM26.6435 9.28196C22.9326 9.28196 20.8104 10.8201 19.7902 12.3503H19.6832V9.69435H12.37V29.1719H19.9909V19.5306C19.9909 16.99 20.2317 14.5342 24.1969 14.5342C28.1052 14.5342 28.162 17.4315 28.162 19.691V29.1719H35.783V18.4738C35.783 13.2387 34.3631 9.28196 26.6435 9.28196ZM1.27058 9.69302V29.1719H8.89651V9.69302H1.27058Z" fill="black"/>
</svg>
