<svg width="92" height="77" viewBox="0 0 92 77" fill="none" xmlns="http://www.w3.org/2000/svg">
<path d="M81.8155 50.1414C81.3348 48.7606 80.5193 47.4642 79.344 46.3761C76.1695 43.4533 71.3361 42.6873 67.4669 44.3532C67.4359 44.3581 67.4189 44.3457 67.3825 44.3532C63.0101 46.0859 56.1689 42.4444 52.6738 41.4454C50.7562 40.8975 49.01 39.7114 47.3285 38.6579C49.9829 38.8103 52.7779 40.0671 54.0769 40.6646C54.33 40.7786 54.5493 40.6745 54.403 40.5183C53.2109 39.2901 52.2268 38.1472 51.6364 37.0689L54.9992 39.7672L55.4604 39.3234L51.147 35.8628C51.0683 35.5628 51.0399 35.2691 51.0514 34.9766L55.913 38.8785L56.3714 38.4347L51.175 34.2688C51.2341 34.0804 51.3156 33.8932 51.4169 33.7073L56.7987 38.0206L57.2599 37.5757L51.777 33.183C51.9062 33.0243 52.044 32.8731 52.2043 32.7157L57.7155 37.1345L58.1738 36.6907L52.6598 32.2708C52.7919 32.1419 52.9466 31.9944 53.1209 31.8272L58.6322 36.2458L59.0932 35.8045L53.5822 31.3821C53.7113 31.2557 53.8606 31.1131 54.0067 30.9694L59.5179 35.3906L59.9761 34.9468L54.4651 30.5269C54.586 30.4079 54.7123 30.2864 54.8419 30.1564L60.353 34.5788L60.8114 34.1351L55.3001 29.7152C55.4492 29.5678 55.601 29.4202 55.7584 29.2714L61.2696 33.6927L61.7251 33.2489L56.2141 28.8265C56.3574 28.6915 56.498 28.5551 56.6414 28.4126L62.1526 32.8325L62.6109 32.3874L57.097 27.9736C57.2458 27.8262 57.395 27.6787 57.5525 27.5287L63.0636 31.9486L63.5193 31.5073L58.008 27.0874C58.16 26.94 58.3117 26.7937 58.4692 26.6436L63.9803 31.0649L64.4359 30.6211L58.9277 26.1987C59.071 26.0649 59.2116 25.9274 59.3522 25.7885L64.8634 30.2072L65.3189 29.7635L59.8079 25.3436C59.9203 25.237 60.0327 25.1279 60.1395 25.0238L65.6506 29.4437L66.109 28.9987L60.5979 24.58C60.7525 24.4299 60.9043 24.2825 61.0561 24.135L66.5674 28.5549L67.0284 28.1111L61.5174 23.6912C61.658 23.5536 61.8013 23.4173 61.9447 23.2772L67.4559 27.6996L67.9114 27.2546L62.4004 22.8359C62.5522 22.6885 62.704 22.5409 62.8586 22.3909L68.3699 26.8133L68.8226 26.3696L63.317 21.9422C63.4714 21.7948 63.6207 21.6447 63.7782 21.4972L69.2893 25.9196L69.745 25.4759L64.2337 21.0535C64.38 20.9172 64.5206 20.7771 64.6612 20.6396L70.1723 25.0595L70.6335 24.6158L65.1194 20.1959C65.2403 20.077 65.3612 19.9591 65.485 19.8426L70.996 24.2625L71.4545 23.8175L65.9432 19.3988C66.0838 19.2636 66.2244 19.1248 66.365 18.9874L71.8762 23.4073L72.3345 22.9622L66.8234 18.5435C66.9498 18.4207 67.0764 18.2968 67.2029 18.1753L72.7141 22.5965L73.1723 22.1528L67.6612 17.7304C67.813 17.583 67.9676 17.4342 68.1196 17.2891L73.6307 21.7079L74.0864 21.2642L68.5751 16.8443C68.7214 16.7055 68.8648 16.5655 69.0026 16.4315L74.5137 20.8503L74.9721 20.4065L69.4608 15.9866C69.6154 15.8342 69.7673 15.6904 69.9191 15.5429L75.4303 19.9653L75.8858 19.5203L70.3748 15.1041C70.5323 14.9516 70.6841 14.8017 70.8359 14.6591L76.3472 19.079L76.8027 18.634L71.2972 14.2152C71.4433 14.0726 71.5838 13.9363 71.7215 13.8012L77.2328 18.2199L77.691 17.7786L72.1801 13.3574C72.2981 13.2447 72.4049 13.1406 72.5117 13.0365L78.0228 17.4564L78.4812 17.0151L72.9672 12.5902C73.1357 12.4278 73.2876 12.2804 73.4254 12.1464L78.9367 16.5652L79.3949 16.1215L73.8834 11.7043C74.1196 11.4737 74.2544 11.3436 74.2544 11.3436C74.2741 11.3263 74.2909 11.3114 74.3106 11.2916L79.8219 15.7127L80.2774 15.2691L74.7661 10.8492C74.9236 10.6966 75.0782 10.5504 75.2275 10.4054L80.7386 14.8265L81.197 14.3854L75.6857 9.96296C75.846 9.80554 75.9978 9.65673 76.144 9.52167L81.6552 13.9416L82.1164 13.4965L76.6052 9.07787C76.7712 8.91809 76.909 8.78289 77.0297 8.66392L82.5409 13.0827L82.9992 12.6414L77.4936 8.22512C77.6174 8.09755 77.7411 7.98594 77.8705 7.88183L83.3592 12.2833L83.8202 11.8395L78.4273 7.51619C78.6408 7.39723 78.8603 7.30297 79.0797 7.22995L84.2759 11.3982L84.7371 10.9556L79.8725 7.05379C80.2042 7.01659 80.5361 7.01409 80.8821 7.0513L85.1953 10.512L85.6538 10.0669L82.2908 7.36863C83.5338 7.77272 84.8777 8.50401 86.3398 9.40506C86.5367 9.52652 86.7365 9.38771 86.5817 9.17698C83.6152 5.15368 77.2914 3.93654 74.8282 6.32126C74.3053 6.83058 73.1777 7.92015 71.7324 9.3208C71.7324 9.3208 62.7345 18.0404 56.1803 24.394C55.9075 24.6555 55.6377 24.9195 55.3761 25.1736C52.674 27.7889 50.5033 29.8922 49.7469 30.6235L43.3793 36.7973C43.3428 36.7898 43.3049 36.7712 43.2669 36.7639C43.0855 36.7279 42.758 36.6165 42.2997 36.444L22.815 0L33.4944 31.8469C33.4944 31.8469 33.5871 32.1444 33.739 32.6624C20.5867 26.5692 0 14.9281 0 14.9281C0 14.9281 34.9608 41.8444 36.2162 42.7467C36.2683 43.0095 36.3428 43.2748 36.4144 43.54L12.202 67.0009L12.9738 67.6206L37.0992 45.553C39.2587 50.8951 43.6184 56.4902 39.0491 59.3459C39.0379 59.3633 39.0491 59.3806 39.0408 59.4005C34.9228 61.9512 34.0245 67.343 37.1119 71.6265C40.2822 76.0266 46.4401 77.6008 50.8434 75.1366C53.5485 73.622 54.8926 70.5556 55.9497 67.6057C55.0472 65.2359 54.3021 64.383 53.0817 62.6875C52.2832 61.5795 51.2934 60.6545 50.1912 59.9209C47.8012 57.9178 40.8082 42.9624 41.5224 41.5668C50.0479 41.4552 60.941 47.3006 62.1809 52.7369C62.1921 52.7369 62.2146 52.722 62.226 52.717C62.434 54.8166 63.4069 56.8072 65.1109 58.3766C68.5412 61.5371 73.9316 62.2113 77.9159 59.9803C78.4387 59.688 78.9307 59.3483 79.3779 58.969C81.0032 57.6007 81.9507 55.7961 82.2038 53.8277C83.1317 53.5376 84.4759 53.2476 85.7495 53.5005C90.4565 54.584 91.7275 51.1677 91.8231 50.0995C91.9185 49.088 85.1137 52.0776 81.8155 50.1414ZM35.9112 39.0532C35.3038 38.2141 35.5877 37.0936 36.541 36.5582C37.4997 36.0251 38.7636 36.2743 39.3683 37.1172C39.9756 37.9599 39.6945 39.0767 38.7385 39.6122C37.7852 40.1452 36.5156 39.8961 35.9112 39.0532ZM44.2581 60.8877C44.4971 60.91 44.736 60.9273 44.9723 60.9472C47.0026 61.2323 49.027 62.3777 50.3542 64.2145C52.5671 67.2883 52.0075 71.106 49.1112 72.7271C46.2151 74.3507 42.055 73.1732 39.8435 70.1019C37.632 67.0305 38.1888 63.208 41.0849 61.5867C42.0438 61.0464 43.1403 60.8455 44.2581 60.8877ZM77.1508 56.9066C76.8526 57.1544 76.532 57.3825 76.1892 57.5759C73.4956 59.078 69.8232 58.5873 67.4529 56.4008C66.1285 55.1811 65.3918 53.607 65.3749 51.9784C65.3609 50.3745 66.0498 48.9096 67.3124 47.8436C67.6077 47.5957 67.9309 47.3701 68.274 47.1792C70.965 45.6745 74.6343 46.1678 77.0045 48.3468C78.3319 49.569 79.0656 51.1455 79.0825 52.7742C79.0965 54.3731 78.4048 55.8455 77.1508 56.9066Z" fill="#E5E5E5"/>
</svg>
