<svg width="36" height="30" viewBox="0 0 36 30" fill="none" xmlns="http://www.w3.org/2000/svg">
<path d="M35.7839 3.90279C34.806 5.39031 33.6061 6.65835 32.1845 7.70692C32.1985 7.98813 32.2055 8.30598 32.2055 8.66046C32.2055 10.63 31.9247 12.602 31.3631 14.5763C30.8015 16.5506 29.9436 18.4404 28.7895 20.2457C27.6353 22.0509 26.2605 23.6502 24.6651 25.0436C23.0696 26.4369 21.1518 27.5479 18.9117 28.3765C16.6715 29.2051 14.2706 29.6194 11.7091 29.6194C7.71139 29.6194 4.0299 28.5158 0.664612 26.3086C1.26191 26.3765 1.83477 26.4105 2.38319 26.4105C5.72295 26.4105 8.70589 25.3586 11.332 23.2548C9.77483 23.2256 8.38026 22.7354 7.14829 21.7842C5.91632 20.8331 5.06851 19.6177 4.60486 18.1381C5.06315 18.2273 5.51547 18.272 5.96181 18.272C6.6043 18.272 7.2365 18.1863 7.85841 18.0149C6.1966 17.6746 4.81799 16.8282 3.72257 15.4758C2.6272 14.1234 2.07951 12.5624 2.07951 10.793V10.7018C3.09953 11.2793 4.18755 11.5865 5.34356 11.6234C4.35912 10.9523 3.5786 10.0771 3.00202 8.99793C2.42539 7.91873 2.13708 6.75086 2.13708 5.4943C2.13708 4.16905 2.46183 2.93499 3.11134 1.79213C4.91852 4.05991 7.1083 5.87239 9.68068 7.22957C12.2531 8.58677 15.0128 9.34052 17.9598 9.49082C17.8341 8.95516 17.7712 8.39617 17.7709 7.81386C17.7709 5.78064 18.4746 4.04457 19.8818 2.60565C21.2891 1.16673 22.9869 0.447266 24.9752 0.447266C27.0569 0.447266 28.8104 1.22238 30.2355 2.7726C31.8639 2.44278 33.3885 1.84622 34.8095 0.982924C34.2621 2.74472 33.2072 4.10383 31.6448 5.06025C33.0808 4.88576 34.4604 4.49994 35.7839 3.90279H35.7839Z" fill="black"/>
</svg>
